<?xml version="1.0" encoding="UTF-8"?><svg xmlns="http://www.w3.org/2000/svg" width="13" height="13" viewBox="0 0 13 13"><defs><style>.bg{fill:#6366f1;stroke-width:0}.fg{fill:#fff;stroke-width:0}</style></defs><rect class="bg" x="0" y="0" width="13" height="13" rx="2.5"/><path class="fg" d="M6.5 1.5a.75.75 0 0 1 .75.75v.5h-.01A3.25 3.25 0 0 1 9.75 6v2.25a1 1 0 0 1-1 1h-4.5a1 1 0 0 1-1-1V6a3.25 3.25 0 0 1 2.51-3.25v-.5A.75.75 0 0 1 6.5 1.5ZM5 6.25a.75.75 0 1 0 0 1.5.75.75 0 0 0 0-1.5Zm3 0a.75.75 0 1 0 0 1.5.75.75 0 0 0 0-1.5ZM3 5.75a.5.5 0 0 0-.5.5v1a.5.5 0 0 0 1 0v-1a.5.5 0 0 0-.5-.5Zm7 0a.5.5 0 0 0-.5.5v1a.5.5 0 0 0 1 0v-1a.5.5 0 0 0-.5-.5ZM5 10h3v.75a.5.5 0 0 1-.5.5h-2a.5.5 0 0 1-.5-.5V10Z"/></svg>